<?xml version="1.0" encoding="UTF-8"?><svg id="Layer_2" xmlns="http://www.w3.org/2000/svg" xmlns:xlink="http://www.w3.org/1999/xlink" viewBox="0 0 77.64 78.83"><defs><style>.cls-1{fill:url(#linear-gradient);}.cls-1,.cls-2,.cls-3,.cls-4,.cls-5,.cls-6{stroke-width:0px;}.cls-2{fill:url(#linear-gradient-4);}.cls-3{fill:url(#linear-gradient-2);}.cls-4{fill:url(#linear-gradient-3);}.cls-5{fill:url(#linear-gradient-5);}.cls-6{fill:url(#linear-gradient-6);}</style><linearGradient id="linear-gradient" x1="4139.54" y1="2990.62" x2="4174.18" y2="2913.98" gradientTransform="translate(-4999.35 945.56) rotate(-45.53)" gradientUnits="userSpaceOnUse"><stop offset="0" stop-color="#ffe283"/><stop offset=".59" stop-color="#ff7b00"/><stop offset="1" stop-color="#c85600"/></linearGradient><linearGradient id="linear-gradient-2" x1="4122.07" y1="2903.45" x2="4195.56" y2="2979.04" gradientTransform="translate(-4999.35 945.56) rotate(-45.53)" gradientUnits="userSpaceOnUse"><stop offset=".54" stop-color="#00a4d7"/><stop offset=".6" stop-color="#2db3da"/><stop offset=".66" stop-color="#54c0dd"/><stop offset=".72" stop-color="#75cbdf"/><stop offset=".78" stop-color="#8ed3e1"/><stop offset=".85" stop-color="#9fd9e2"/><stop offset=".92" stop-color="#aadce3"/><stop offset="1" stop-color="#aedee4"/></linearGradient><linearGradient id="linear-gradient-3" x1="4004.29" y1="2716.26" x2="4038.94" y2="2639.63" gradientTransform="translate(-4760.18 672.92) rotate(-41.09)" xlink:href="#linear-gradient"/><linearGradient id="linear-gradient-4" x1="3986.82" y1="2629.1" x2="4060.31" y2="2704.68" gradientTransform="translate(-4760.18 672.92) rotate(-41.09)" xlink:href="#linear-gradient-2"/><linearGradient id="linear-gradient-5" x1="3394.7" y1="1919.06" x2="3429.34" y2="1842.42" gradientTransform="translate(-3849.11 -100.81) rotate(-26.72)" xlink:href="#linear-gradient"/><linearGradient id="linear-gradient-6" x1="3377.23" y1="1831.89" x2="3450.72" y2="1907.48" gradientTransform="translate(-3849.11 -100.81) rotate(-26.72)" xlink:href="#linear-gradient-2"/></defs><g id="Layer_1-2"><path class="cls-1" d="M9.6,3.96c-2.32,1.03-4.36,2.81-5.97,5.39C-3.62,20.89.33,43.95,12.46,60.85c9.42,13.13,21,18.68,29.09,15.09l2.94-1.3c-8.1,3.59-19.67-1.96-29.09-15.09C3.27,42.65-.68,19.59,6.56,8.05c1.62-2.57,3.65-4.36,5.97-5.39l-2.94,1.3Z"/><path class="cls-3" d="M6.56,8.05C13.81-3.5,29.51.85,41.63,17.75c12.12,16.9,16.08,39.96,8.83,51.5s-22.95,7.2-35.07-9.7C3.27,42.65-.68,19.59,6.56,8.05Z"/><path class="cls-4" d="M24.29,3.31c-2.4.85-4.56,2.47-6.37,4.91-8.12,10.95-5.96,34.25,4.82,52.03,8.38,13.82,19.49,20.25,27.84,17.29l3.03-1.07c-8.35,2.96-19.46-3.47-27.84-17.29C14.99,41.4,12.83,18.1,20.94,7.15c1.81-2.44,3.98-4.06,6.37-4.91l-3.03,1.07Z"/><path class="cls-2" d="M20.94,7.15C29.06-3.8,44.38,1.75,55.16,19.54c10.78,17.79,12.94,41.08,4.82,52.03-8.12,10.95-23.43,5.4-34.21-12.38C14.99,41.4,12.83,18.1,20.94,7.15Z"/><path class="cls-5" d="M48.87.33c-2.53.23-5.03,1.26-7.39,3.17-10.58,8.59-14.27,31.69-8.24,51.6,4.68,15.47,13.85,24.46,22.68,23.66l3.2-.29c-8.82.79-17.99-8.2-22.68-23.66-6.03-19.91-2.34-43.01,8.24-51.6,2.36-1.92,4.86-2.95,7.39-3.17l-3.2.29Z"/><path class="cls-6" d="M44.68,3.22c10.58-8.59,24.04.58,30.07,20.49,6.03,19.91,2.34,43.01-8.24,51.6-10.58,8.59-24.04-.58-30.07-20.49-6.03-19.91-2.34-43.01,8.24-51.6Z"/></g></svg>