<?xml version="1.0" encoding="UTF-8"?><svg id="Layer_2" xmlns="http://www.w3.org/2000/svg" viewBox="0 0 48.32 47.66"><defs><style>.cls-1{fill:#03caff;stroke-width:0px;}</style></defs><g id="Layer_1-2"><path class="cls-1" d="M46.42,47.34L.33,1.87c-.43-.43-.43-1.12,0-1.55s1.14-.43,1.57,0l46.1,45.47c.43.43.43,1.12,0,1.55s-1.13.43-1.57,0Z"/><path class="cls-1" d="M12.81,47.34c-.2-.2-.33-.47-.33-.78,0-.6.5-1.09,1.11-1.09h32.5s0-32.06,0-32.06c0-.6.5-1.09,1.11-1.09.61,0,1.11.49,1.11,1.09v33.16c0,.6-.5,1.09-1.11,1.09H13.59c-.31,0-.58-.12-.78-.32Z"/></g></svg>