<?xml version="1.0" encoding="UTF-8"?><svg id="Layer_2" xmlns="http://www.w3.org/2000/svg" viewBox="0 0 19.77 20.03"><defs><style>.cls-1{fill:#005468;stroke:#084152;stroke-miterlimit:10;stroke-width:.83px;}</style></defs><g id="Layer_1-2"><path class="cls-1" d="M19.22,1.17L1.16,19.48c-.17.17-.44.17-.61,0s-.17-.45,0-.62L18.61.54c.17-.17.45-.17.61,0s.17.45,0,.62Z"/><path class="cls-1" d="M19.22,14.52c-.08.08-.19.13-.31.13-.24,0-.43-.2-.43-.44V1.3s-12.74,0-12.74,0c-.24,0-.43-.2-.43-.44,0-.24.19-.44.43-.44h13.17c.24,0,.43.2.43.44v13.35c0,.12-.05.23-.13.31Z"/></g></svg>