<?xml version="1.0" encoding="UTF-8"?><svg id="Layer_2" xmlns="http://www.w3.org/2000/svg" viewBox="0 0 256.74 61.55"><defs><style>.cls-1{fill:#fff;stroke-width:0px;}</style></defs><g id="Layer_1-2"><path class="cls-1" d="M61.48,59.01c-10.91,0-18.42-6.99-18.98-17.51-.78-14.86,8.86-27.08,24.08-27.08,11.44,0,18.41,7.8,18.92,17.45.83,15.8-9.29,27.14-23.94,27.14h-.08ZM62.71,48.91c6.45,0,9.37-10.14,9-17.03-.2-3.74-1.95-7.37-6.42-7.37-6.8,0-9.52,10.56-9.18,16.73.24,4.58,2.57,7.67,6.51,7.67h.09ZM180.8,57.83c-2.81,1.03-5.5,1.13-7.85,1.13-12.24,0-18.93-6.8-19.53-18.07-.69-12.96,7.87-26.47,23.43-26.47,8.72,0,15.28,4.93,15.73,13.04.56,10.84-9.44,14.98-26.45,14.51.14,1.12.68,2.75,1.62,3.83,1.7,1.87,4.46,2.88,7.98,2.88,4.46,0,8.77-.72,14.18-3.38.02-.02-6.15,11.44-9.12,12.54M180.4,27.41c-.1-1.91-1.81-3.38-4.56-3.38-5.66,0-8.59,4.63-9.12,8.4,9.53.11,13.88-1.31,13.69-4.93v-.08ZM211.17,21.39c2.84,7.2,2.16,5.66,2.75,7.23l-.1-.46C239.07.6,256.74,0,256.74,0l-40.39,40.52,4.97-2.75,9.18,20.28h-14.53l-2.53-6.42c-1.2-3.06-1.69-4.75-2.43-7.28h-.24c-12.67,17.63-27.55,17.2-27.55,17.2l21.54-25.12-10.51-21.06s13.16-3.37,16.9,6.03M89.62,29.49c.74-5.48,1.52-7.47-3.14-11.34,0,0,5.03-3.46,9.8-4.16,8.94-1.33,5.88,8.12,5.88,8.12h.12c3.57-5.39,8.55-7.69,13.96-7.69,6.68,0,9.81,4.26,10.37,7.78,3.5-5.32,8.66-7.76,14-7.78,6.76,0,10.5,4.38,10.88,11.4.09,1.76-.08,5.21-.36,7.43,0,0-1.6,12.7-2.31,17.18-.72,4.47-1.11,8.97-13.97,7.99l3.16-23.58c.21-1.75.39-3.54.31-5.19-.14-2.69-1.45-4.6-4.04-4.6-3.91,0-7.43,5.42-8.55,13.86l-1.75,11.51c-.71,4.47-.75,8.97-13.63,7.99l3.16-23.62c.23-1.74.38-3.45.32-4.93-.16-2.76-1.17-4.81-3.86-4.81-3.94,0-7.74,5.63-8.8,13.9l-1.75,11.47c-.72,4.47-.77,8.97-13.64,7.99l3.83-28.92ZM35.57,58.05c-2.33.47-5.99.9-9.27.9C11.48,58.96.76,50.21.05,36.72-.6,24.45,4.62,15.25,12.78,9.95c5.53-3.7,12.24-5.5,20.5-5.42,3.03.03,6.25.41,8.4.89,7.35,1.65.71,11.96.71,11.96-1.95-.77-5.41-1.67-9.88-1.67s-9.15,1.3-12.11,3.72c-4.19,3.42-6.4,8.72-6.03,15.82.43,7.94,6.15,13.01,15,13.01,3.66,0,7.69-.82,12.18-2.68,0,0-2.51,11.79-5.98,12.47M237.06,51.48c-1.58,0-2.86,1.34-2.86,3s1.28,3.03,2.86,3.03c1.58,0,2.84-1.33,2.84-3.01s-1.26-3.02-2.84-3.02M237.04,50.93c1.97,0,3.51,1.58,3.51,3.56s-1.55,3.57-3.51,3.57-3.53-1.56-3.53-3.57,1.58-3.56,3.53-3.56M236.38,54.84v1.71h-.63v-3.97c.33-.05.65-.08,1.13-.08.59,0,1,.12,1.24.29.23.18.36.44.36.83,0,.52-.35.83-.77.96.34.1.59.41.66,1,.1.62.18.85.25.98h-.66c-.1-.12-.2-.49-.27-1.01-.1-.51-.36-.7-.85-.7h-.45ZM236.38,53.01v1.34h.46c.52,0,.96-.18.96-.68,0-.34-.25-.7-.96-.7-.21,0-.35.02-.46.03"/></g></svg>