<?xml version="1.0" encoding="UTF-8"?><svg id="Layer_2" xmlns="http://www.w3.org/2000/svg" viewBox="0 0 251.42 221.6"><defs><style>.cls-1{fill:none;}.cls-1,.cls-2{stroke-width:0px;}.cls-2{fill:#fff;}</style></defs><g id="Layer_1-2"><path class="cls-2" d="M169.89,54.61h-88.35c-14.84,0-26.92,12.08-26.92,26.92v58.53c0,14.84,12.08,26.92,26.92,26.92h88.35c14.84,0,26.92-12.08,26.92-26.92v-58.53c0-14.84-12.08-26.92-26.92-26.92ZM192.07,140.06c0,12.2-9.98,22.18-22.18,22.18h-88.35c-12.2,0-22.18-9.98-22.18-22.18v-58.53c0-12.2,9.98-22.18,22.18-22.18h88.35c12.2,0,22.18,9.98,22.18,22.18v58.53Z"/><path class="cls-2" d="M170.83,92.87c5.3-1.57,10.7.05,14.98,3.61v-11.4c-13.83-2.19-21.08-.7-26.62,2.73-4.49,2.87-6.39,6.78-6.39,6.78,0,0-.1.21-.26.58-.73-28.85-18.38-26.34-39.45-26.33-5.91,0-11.86,0-11.86,0v24.86c-3.5-10.29-14.31-9.18-25.88-9.18-4.19,0-9.73,0-9.73,0v52.6h15.93c-2.66-.92-4.01-3.23-4.01-6.58v-14.45l4.6,4.6c2.03.5,3.8.44,3.8.44,4.4-.24,12.31-1.95,15.29-10.87v42.56h18.96c-2.65-.92-3.99-3.18-3.99-6.52v-28.58l7.19,7.16c2.32.83,4.03.97,5.99.88,5.53-.35,15-2.68,19.96-12.68.41,9.4,3.49,18.83,13.02,22.54,4.2,1.72,8.97,2.19,13.93,1.81,3.24-.1,6.39-.38,9.54-.95v-25.77h-14.52c2.66.93,4.01,3.11,4.01,6.46v11.74c-3.31,1.04-7.79.01-10.28-3.21-3.15-4.08-3.72-15.55-2.38-23.38.76-3.91,4.11-8.23,8.2-9.44M82.98,114.05c-3.85,0-5.45-1.68-5.45-1.68v-18.91c0-1.61,1.16-2.72,2.92-2.92,1.88-.22,10.42-1.58,10.42,11.08,0,11.86-5.22,12.43-7.89,12.43M125.75,115.99c-5.82,0-9.56-2.72-9.56-2.72v-31.37c0-2.62,3.09-4.41,5.74-4.74,2.84-.35,15.91-2.32,15.91,18.24,0,18.53-8.81,20.6-12.08,20.6"/><rect class="cls-1" width="251.42" height="221.6"/></g></svg>