<?xml version="1.0" encoding="UTF-8"?><svg id="Layer_2" xmlns="http://www.w3.org/2000/svg" viewBox="0 0 333.28 75.63"><defs><style>.cls-1{fill:#fff;stroke-width:0px;}</style></defs><g id="Layer_1-2"><path id="TM" class="cls-1" d="M324.93,1.23h-1.6V.41h4.09v.82h-1.6v4.21h-.88V1.23ZM328.34.41h.94l1.53,2.38,1.53-2.38h.94v5.03h-.88V1.83l-1.59,2.37h-.03l-1.57-2.36v3.59h-.87V.41Z"/><path id="Infraestructura" class="cls-1" d="M103.18,59.14h2.64l8.69,11.21v-11.21h2.8v16.21h-2.39l-8.94-11.53v11.53h-2.8v-16.21ZM121.68,59.14h12.07v2.59h-9.22v4.42h8.18v2.59h-8.18v6.6h-2.85v-16.21ZM136.88,59.14h7.23c2.04,0,3.64.6,4.68,1.62.86.88,1.34,2.09,1.34,3.5v.05c0,2.66-1.6,4.26-3.87,4.91l4.38,6.14h-3.36l-3.98-5.65h-3.57v5.65h-2.85v-16.21ZM143.89,67.18c2.04,0,3.34-1.07,3.34-2.71v-.05c0-1.74-1.25-2.69-3.36-2.69h-4.15v5.44h4.17ZM158.98,59.03h2.64l7.13,16.33h-3.01l-1.64-3.91h-7.67l-1.67,3.91h-2.92l7.13-16.33ZM163.05,68.92l-2.8-6.49-2.78,6.49h5.58ZM171.35,59.14h12.02v2.55h-9.17v4.22h8.13v2.55h-8.13v4.35h9.29v2.55h-12.14v-16.21ZM186.38,72.99l1.71-2.04c1.55,1.34,3.1,2.11,5.12,2.11,1.76,0,2.87-.81,2.87-2.04v-.05c0-1.16-.65-1.78-3.66-2.48-3.45-.83-5.4-1.85-5.4-4.84v-.05c0-2.78,2.32-4.7,5.53-4.7,2.36,0,4.24.72,5.88,2.04l-1.53,2.15c-1.46-1.09-2.92-1.67-4.4-1.67-1.67,0-2.64.86-2.64,1.92v.05c0,1.25.74,1.81,3.84,2.55,3.43.83,5.21,2.06,5.21,4.75v.05c0,3.03-2.39,4.84-5.79,4.84-2.48,0-4.82-.86-6.76-2.59ZM205.73,61.78h-5.14v-2.64h13.15v2.64h-5.14v13.57h-2.87v-13.57ZM217.02,59.14h7.23c2.04,0,3.64.6,4.68,1.62.86.88,1.34,2.09,1.34,3.5v.05c0,2.66-1.6,4.26-3.87,4.91l4.38,6.14h-3.36l-3.98-5.65h-3.57v5.65h-2.85v-16.21ZM224.04,67.18c2.04,0,3.33-1.07,3.33-2.71v-.05c0-1.74-1.25-2.69-3.36-2.69h-4.15v5.44h4.17ZM233.65,68.48v-9.33h2.85v9.22c0,3.01,1.55,4.63,4.1,4.63s4.08-1.53,4.08-4.52v-9.33h2.85v9.19c0,4.84-2.73,7.27-6.97,7.27s-6.9-2.43-6.9-7.13ZM250.79,67.3v-.05c0-4.61,3.45-8.38,8.36-8.38,2.99,0,4.79,1.04,6.35,2.52l-1.83,2.11c-1.3-1.2-2.69-2.02-4.54-2.02-3.1,0-5.35,2.55-5.35,5.72v.05c0,3.17,2.25,5.77,5.35,5.77,1.99,0,3.26-.81,4.65-2.11l1.83,1.85c-1.69,1.76-3.54,2.87-6.58,2.87-4.72,0-8.25-3.68-8.25-8.34ZM272.52,61.78h-5.14v-2.64h13.15v2.64h-5.14v13.57h-2.87v-13.57ZM283.55,68.48v-9.33h2.85v9.22c0,3.01,1.55,4.63,4.1,4.63s4.08-1.53,4.08-4.52v-9.33h2.85v9.19c0,4.84-2.73,7.27-6.97,7.27s-6.9-2.43-6.9-7.13ZM301.28,59.14h7.23c2.04,0,3.64.6,4.68,1.62.86.88,1.34,2.09,1.34,3.5v.05c0,2.66-1.6,4.26-3.87,4.91l4.38,6.14h-3.36l-3.98-5.65h-3.57v5.65h-2.85v-16.21ZM308.29,67.18c2.04,0,3.34-1.07,3.34-2.71v-.05c0-1.74-1.25-2.69-3.36-2.69h-4.15v5.44h4.17ZM323.51,59.03h2.64l7.13,16.33h-3.01l-1.64-3.91h-7.67l-1.67,3.91h-2.92l7.13-16.33ZM327.58,68.92l-2.8-6.49-2.78,6.49h5.58ZM95.79,75.36h2.85v-16.21h-2.85v16.21Z"/><path id="Wordmark" class="cls-1" d="M219.53,39.91h8.21v-11.93h6.92c9.6,0,15.8-5.38,15.8-13.7v-.11c0-8.19-5.87-13.48-14.95-13.48h-15.98v39.22ZM234.94,20.74h-7.2v-12.7h7.03c4.62,0,7.37,2.35,7.37,6.29v.11c0,3.76-2.89,6.29-7.2,6.29ZM281.33,39.91h9.57l-9.62-14.06.32-.12c5.38-2,8.35-6.28,8.35-12.07v-.11c0-3.64-1.15-6.72-3.33-8.9-2.59-2.59-6.53-3.95-11.4-3.95h-17.91v39.22h8.21v-12.72h7.29l8.52,12.72ZM274.65,20h-9.13v-11.96h8.96c4.54,0,7.14,2.17,7.14,5.95v.11c0,3.64-2.67,5.89-6.97,5.89ZM324.73,39.91h8.55L316.47.41h-7.71l-16.81,39.51h8.33l3.64-8.92h17.18l3.64,8.92ZM318.19,23.81h-11.37l5.69-13.88,5.69,13.88ZM93.81,34.79c4.31,3.75,10.22,5.81,16.68,5.81,8.84,0,14.33-4.67,14.33-12.18v-.11c0-7.02-4.75-9.67-12.41-11.67-6.91-1.77-8.78-2.65-8.78-5.49v-.11c0-1.92,1.66-3.86,5.38-3.86,3.5,0,6.95,1.14,10.27,3.39l4.24-5.98c-3.89-3.05-8.74-4.59-14.4-4.59-8.03,0-13.65,4.87-13.65,11.84v.11c0,7.97,5.38,9.95,12.98,11.89,6.45,1.65,8.21,2.8,8.21,5.32v.11c0,2.52-2.36,4.14-6.01,4.14-4.41,0-8.34-1.44-12.02-4.41l-4.83,5.78ZM132.42,39.91h29.74v-7.24h-21.59v-8.89h18.75v-7.24h-18.75V7.93h21.3V.69h-29.45v39.22ZM201.61,39.91h8.15V.69h-9.01l-10.6,17.06L179.55.69h-9.01v39.22h8.04V13.49l11.46,17.4,11.57-17.57v26.59Z"/><path id="Symbol" class="cls-1" d="M40.18,10.41c2.88,0,5.22,2.05,5.22,4.58s-2.34,4.58-5.22,4.58-5.22-2.05-5.22-4.58,2.34-4.58,5.22-4.58ZM70.98,19.71c.62-1.2.86-2.18.93-2.44.02-.07.07-.35-.05-.45-.14-.11-.27-.04-.35.02-21.22,16-42.61-4.45-40.47,8.8.27,1.72,1.96,4.8,4,7.78,0,0,.14.19,0,.35-.07.1-.19.13-.3.19-11.08,5.86-18.41,14.71-22.89,21.8-3.63-5.25-5.6-11.47-5.6-17.94,0-17.41,14.16-31.58,31.58-31.58,8.83,0,17.03,3.57,23.07,10.05l.07.08.1-.04c1.77-.85,3.51-1.92,5.18-3.17l.12-.09-.1-.12C59.05,4.72,48.69,0,37.82,0,16.96,0,0,16.96,0,37.82c0,8.73,3,17.1,8.49,23.83-1.39,2.75-2.16,4.72-2.39,5.31-.93,2.35-.1,3.07.24,3.2.68.28,1.67-.04,2.68-1.33,7.06-8.98,26.1-31.07,35.53-24.7,5.35,3.61,5.19,7.67,1.16,11.39-1.72,1.59-5.58,3.98-7.95,5.1-3.66,1.73-5.65,2.08-5.35,3.36.29,1.2,1.82,1.2,7.99-.41,7.09-1.83,22.51-7.14,16.07-20.01-3.14-6.28-13.81-11.43-13.81-11.58.09-.12.32-.11.32-.11,12.5-.93,19.57-3.99,23.59-7.08,1.84,4.07,2.81,8.52,2.81,13.02,0,17.41-14.17,31.58-31.58,31.58-6.33,0-12.45-1.88-17.7-5.45l-.12-.08-.08.13c-1.05,1.68-2.08,3.4-3.06,5.1l-.07.12.11.07c6.23,4.15,13.46,6.35,20.92,6.35,20.85,0,37.82-16.96,37.82-37.82,0-6.34-1.62-12.56-4.66-18.1Z"/></g></svg>