<?xml version="1.0" encoding="UTF-8"?><svg id="Layer_2" xmlns="http://www.w3.org/2000/svg" viewBox="0 0 256.77 76.95"><defs><style>.cls-1{fill:#fff;stroke-width:0px;}</style></defs><g id="Layer_1-2"><path class="cls-1" d="M184.95,10.43l-22.08,42.04c-.48.91-1.84.91-2.32,0l-22.1-42.04c-.22-.42-.66-.68-1.13-.68h-10.68c-.72,0-1.19.77-.85,1.41l34.79,65.12c.48.9,1.77.9,2.26,0L197.63,11.16c.34-.64-.12-1.41-.84-1.41h-10.7c-.47,0-.91.26-1.13.68"/><path class="cls-1" d="M197.49,66.52l22.08-42.04c.48-.91,1.84-.91,2.32,0l22.1,42.04c.22.42.66.68,1.13.68h10.68c.72,0,1.19-.77.85-1.41L221.87.67c-.48-.9-1.77-.9-2.26,0l-34.8,65.12c-.34.64.12,1.41.85,1.41h10.7c.47,0,.91-.26,1.13-.68"/><path class="cls-1" d="M32.3,67.21H12.39c-.71,0-1.28-.57-1.28-1.28v-17.85c0-.71.57-1.28,1.28-1.28h19.91c9.49,0,13.73,2.69,13.73,10.21s-4.14,10.21-13.73,10.21M12.4,19.46h19.63c7.24,0,10.92,3.1,10.92,8.8s-3.67,8.8-10.92,8.8H12.4c-.71,0-1.28-.57-1.28-1.28v-15.04c0-.71.57-1.28,1.28-1.28M46.58,40.76c4.61-2.3,7.49-7.3,7.49-13.44,0-10.47-8.16-17.57-19.68-17.57H1.28c-.71,0-1.28.57-1.28,1.28v64.65c0,.71.57,1.28,1.28,1.28h31.65c15.84,0,24.19-6.82,24.19-20.16s-10.55-16.04-10.55-16.04"/><path class="cls-1" d="M100.21,67.21h-19.91c-.71,0-1.28-.57-1.28-1.28v-17.85c0-.71.57-1.28,1.28-1.28h19.91c9.49,0,13.73,2.69,13.73,10.21s-4.14,10.21-13.73,10.21M80.31,19.46h19.63c7.24,0,10.92,3.1,10.92,8.8s-3.67,8.8-10.92,8.8h-19.63c-.71,0-1.28-.57-1.28-1.28v-15.04c0-.71.57-1.28,1.28-1.28M114.49,40.76c4.61-2.3,7.49-7.3,7.49-13.44,0-10.47-8.16-17.57-19.68-17.57h-33.11c-.71,0-1.28.57-1.28,1.28v64.65c0,.71.57,1.28,1.28,1.28h31.65c15.84,0,24.19-6.82,24.19-20.16s-10.55-16.04-10.55-16.04"/></g></svg>