<?xml version="1.0" encoding="UTF-8"?><svg id="Layer_2" xmlns="http://www.w3.org/2000/svg" viewBox="0 0 286.31 96.81"><defs><style>.cls-1{fill:#fff;stroke-width:0px;}</style></defs><g id="Layer_1-2"><path class="cls-1" d="M257.01,92.37c-.35,0-.7-.01-1.06-.03H30.37c-.36.02-.7.03-1.06.03-13.73,0-24.86-11.14-24.86-24.87s11.13-24.87,24.86-24.87h67.28c.12-21.17,21.04-38.3,46.84-38.3s46.72,17.13,46.84,38.3h66.75c13.73,0,24.85,11.13,24.85,24.87s-11.12,24.87-24.85,24.87M257.01,38.19h-61.77C192.43,16.72,170.31,0,143.42,0s-49.01,16.72-51.81,38.19H29.3C13.11,38.19,0,51.31,0,67.5s13.11,29.31,29.3,29.31h227.71c16.18,0,29.3-13.12,29.3-29.31s-13.12-29.32-29.3-29.32"/><path class="cls-1" d="M80.7,54.84c-10.64,0-15.82,5.73-15.82,15.96,0,11.46,5.59,16.23,15.69,16.23,11.87,0,16.23-5.59,16.23-16.78,0-10.37-6.27-15.42-16.1-15.42M80.56,79.68c-4.91,0-6.68-3.82-6.68-8.46,0-6,2.32-9.13,6.82-9.13,5.46.14,7.09,3.13,7.09,9s-2.45,8.6-7.23,8.6"/><path class="cls-1" d="M261.2,47.35c-2.32,0-4.23,1.91-4.23,4.5,0,2.32,2.05,4.23,4.23,4.23,2.46,0,4.51-1.91,4.51-4.23,0-2.59-1.91-4.5-4.51-4.5M261.2,55.4c-1.77,0-3.54-1.64-3.54-3.41,0-2.32,1.77-3.95,3.54-3.95,2.19,0,3.82,1.63,3.82,3.95,0,1.77-1.63,3.41-3.82,3.41"/><path class="cls-1" d="M262.43,52.26c.55-.27.82-.82.82-1.36,0-1.09-.82-1.63-1.77-1.63h-1.78v4.91h.96v-1.77h.82c.13.55.55,1.77,1.36,1.77.41,0,.82-.41.82-.81,0,0-.95-.14-1.22-1.1M261.48,51.58h-.82v-1.36h.82c.41,0,.68.14.68.68,0,.41-.13.68-.68.68"/><path class="cls-1" d="M173.33,54.82c-10.5,0-15.82,5.87-15.82,15.96,0,11.05,7.78,16.23,17.73,16.23,4.36,0,11.49-.63,11.73-4.96.06-1.11-.07-2.64-1-4.39-2.45,1.14-6.36,1.99-9.64,1.99-4.64-.14-9.14-1.5-9.55-7.09h18.01c2.59,0,3.54-1.23,3.54-3.55,0-10.23-6.68-14.19-15-14.19M166.77,67.24c.14-2.59,2.46-5.45,6.55-5.45,4.5,0,5.73,3,5.73,5.45h-12.28Z"/><path class="cls-1" d="M124.08,70.26c-2.61-1.82-8.87-3.54-10.64-4.09-1.64-.55-2.87-1.1-2.87-2.32,0-1.57,2.37-2.14,4.09-2.18,5.56-.14,8.83,1.62,9.95,2.41.96-.62,1.92-1.69,2.03-3.16.45-5.7-7.62-6.08-12.4-6.08-6.96,0-12.82,3-12.82,10.23,0,3.82,1.91,6.14,4.91,7.51,1.77.82,7.09,2.32,9.41,3,1.91.55,2.46,1.09,2.46,2.05,0,1.77-2.73,2.05-4.5,2.05-2.32,0-8.19-.55-11.46-3.14-.82.95-1.36,2.73-1.36,4.36,0,2.18,1.09,3.96,3,4.77,2.32.95,6.41,1.36,9.28,1.36,6.68,0,14.05-2.05,14.05-9.68,0-2.87-.68-5.37-3.14-7.09"/><path class="cls-1" d="M243.17,54.84c-6.13-.18-12.05,1.14-12.14,5.47-.04,1.94,1.84,3.33,2.09,3.21,2.19-1.07,4.93-1.73,7.93-1.6,3.88.17,8.13,1.24,8.13,5.47v.82h-6.27c-7.23,0-14.32,1.5-14.32,9.55,0,5.73,4.23,9.28,10.37,9.28,7.77,0,10.23-5.46,10.23-5.46,0,0,.82,3.96,1.09,4.64h4.64c2.05,0,3.13-.82,3.13-2.73v-15.83c0-10.23-6.96-12.59-14.87-12.82M249.17,74.08c0,4.37-3.68,5.87-6.55,5.87-2.46,0-4.5-1.09-4.5-3.28,0-3,4.09-3.27,6.82-3.27h4.23v.68Z"/><path class="cls-1" d="M155.58,18.92c-4.86-.14-9.57.9-9.64,4.35-.03,1.54,1.47,2.64,1.66,2.55,1.74-.86,3.92-1.38,6.3-1.27,3.07.14,6.45.99,6.45,4.34v.65h-4.98c-5.74,0-11.37,1.19-11.37,7.58,0,4.55,3.36,7.37,8.23,7.37,6.17,0,8.13-4.33,8.13-4.33,0,0,.65,3.14.86,3.68h3.68c1.63,0,2.49-.65,2.49-2.17v-12.57c0-8.12-5.53-10-11.8-10.18M160.35,34.19c0,3.47-2.93,4.66-5.2,4.66-1.95,0-3.58-.87-3.58-2.6,0-2.38,3.25-2.6,5.42-2.6h3.36v.54Z"/><path class="cls-1" d="M130.17,36.9c-.63,0-1.32-.28-1.35-1.27V13.5h-4.58c-2.23,0-2.97.99-2.97,3.09,0,0,0,22.7,0,23.07.04,2.55,1.35,4.03,3.86,4.17,1.01.05,14.2,0,14.2,0,1.37-.05,2.17-.67,2.17-1.97v-4.95s-10.5,0-11.34,0"/><path class="cls-1" d="M153.27,78.36c-2.06,1.06-4.23,1.17-5.73,1.31-3.27,0-4.78-1.5-4.78-4.37v-13.18c1.8-.09,3.35-.15,4.46-.13,1.26-.04,4.78.28,5.85.85.55-.5,1.37-1.44,1.26-3.47-.16-2.94-2.1-3.93-5.3-3.96-1.7-.02-3.97.09-6.27.21v-7.89h-5.59c-2.18,0-3.28,1.23-3.28,3.14v5.04c-.98.07-2.25.08-3.54-.6-.99.76-1.68,2.44-1.53,4.04.2,2.54,2.4,3.24,5.07,3.24v14.05c0,7.23,4.09,10.37,10.23,10.37,4.63,0,10.28-.8,10.36-4.45.03-1.64-.4-3.09-1.23-4.23"/><path class="cls-1" d="M203.39,52.18c4.33-.25,8.87-.48,11.16-.44,1.12-.03,3.92.14,4.99.76.48-.44,1.22-1.33,1.13-3.08-.14-2.54-1.87-3.39-4.72-3.41-3.44-.03-9.57.5-12.49.37-1.06-.02-2.91-.16-3.93-.79-.88.66-1.73,2.44-1.6,3.83.2,2.47,2.68,2.93,5.46,2.77"/><path class="cls-1" d="M35.04,66.5c.19-7.38,5.05-11.26,12.65-11.4,5.05-.09,8.44,1.62,10,2.89.14.12,2.73-1.05,2.81-3.93.17-5.87-7.52-6.92-13.27-6.84-12.06.18-21.84,5.58-21.94,19.51-.09,13.4,8.55,20.36,21.8,20.36,5.87,0,13.66-1.61,13.66-7.63,0-.41,0-2.59-1.23-4.23-2.49,2.21-7.39,3.22-10.94,3.22-8.06,0-13.76-3.46-13.54-11.96"/><path class="cls-1" d="M213.5,54.74c-4.85,0-8.38,1.9-11.36,5.97-.35-3.15-.82-5.42-.82-5.42h-4.79c-1.92,0-3.29.82-3.29,3.15v27.78h8.89v-16.83c0-4.93,3.01-7.39,7.53-7.39s5.34,2.87,5.34,6.02v18.2h5.75c2.05,0,3.15-.82,3.15-2.73v-18.48c0-7.8-4.92-10.26-10.4-10.26"/></g></svg>