<?xml version="1.0" encoding="UTF-8"?><svg id="Layer_2" xmlns="http://www.w3.org/2000/svg" viewBox="0 0 307.32 115.88"><defs><style>.cls-1{fill:#fff;stroke-width:0px;}</style></defs><g id="Layer_1-2"><polygon class="cls-1" points="65.5 107.94 66.06 104.66 68.75 104.66 68.19 107.94 65.5 107.94"/><polygon class="cls-1" points="72.96 107.94 73.52 104.66 76.21 104.66 75.65 107.94 72.96 107.94"/><polygon class="cls-1" points="80.42 107.94 80.98 104.66 83.67 104.66 83.11 107.94 80.42 107.94"/><path class="cls-1" d="M104.79,107.27c-.87.92-1.69,1.56-2.46,1.93-.77.37-1.54.56-2.33.56-1.23,0-2.26-.44-3.07-1.32-.81-.88-1.22-2.09-1.22-3.61,0-1.09.24-2.03.72-2.84.48-.81,1.15-1.43,2.02-1.86.86-.43,2.1-.68,3.71-.76,1.36-.07,2.29-.15,2.8-.24.51-.09.94-.21,1.3-.38.23-.81.34-1.47.34-1.98,0-.71-.27-1.28-.81-1.7-.54-.43-1.32-.64-2.34-.64-2.05,0-3.38,1.02-3.99,3.07l-2.39-.24c1.04-3.47,3.21-5.21,6.53-5.21,1.64,0,2.94.43,3.89,1.29.96.86,1.44,1.93,1.44,3.23,0,.89-.13,1.93-.38,3.13l-.91,4.2c-.29,1.34-.44,2.42-.44,3.24,0,.57.09,1.32.27,2.25h-2.43c-.12-.53-.2-1.24-.25-2.11M105.83,100.78c-.6.28-1.6.49-3.02.64-1.46.15-2.45.34-3,.57-.54.23-.96.59-1.27,1.07-.3.48-.45,1.03-.45,1.66,0,.86.24,1.54.72,2.04.48.5,1.13.75,1.94.75.76,0,1.5-.23,2.21-.7.71-.47,1.29-1.14,1.73-2.03.45-.88.83-2.22,1.14-4.01"/><path class="cls-1" d="M117.81,109.38l2.9-16.96h2.11l-.59,3.47c1.39-2.57,2.78-3.85,4.18-3.85.48,0,1.06.21,1.75.62l-.97,2.68c-.41-.36-.85-.54-1.31-.54-.87,0-1.74.57-2.6,1.72-.86,1.15-1.54,3.17-2.04,6.06l-1.19,6.81h-2.25Z"/><path class="cls-1" d="M136.94,103.61l2.32.29c-.38,1.65-1.27,3.09-2.67,4.31-1.16,1.03-2.46,1.55-3.89,1.55-1.01,0-1.93-.27-2.77-.82-.83-.55-1.49-1.37-1.98-2.46-.49-1.09-.74-2.39-.74-3.91,0-1.99.37-3.85,1.13-5.57.75-1.73,1.67-2.99,2.76-3.78,1.08-.79,2.26-1.19,3.53-1.19,1.61,0,2.92.61,3.94,1.84,1.02,1.22,1.53,2.96,1.53,5.19,0,.83-.06,1.68-.17,2.56h-10.27c-.03.34-.05.64-.05.91,0,1.59.31,2.8.91,3.63.61.82,1.34,1.23,2.2,1.23s1.61-.32,2.4-.97c.79-.65,1.4-1.58,1.84-2.8M130.02,99.41h7.83v-.59c0-1.52-.3-2.65-.9-3.41-.6-.76-1.36-1.14-2.29-1.14-1,0-1.92.43-2.76,1.28-.84.85-1.46,2.14-1.88,3.86"/><polygon class="cls-1" points="141.46 109.38 145.47 85.96 147.85 85.96 143.84 109.38 141.46 109.38"/><path class="cls-1" d="M147.51,109.38l2.9-16.96h2.38l-2.9,16.96h-2.38ZM150.96,89.23l.56-3.27h2.38l-.56,3.27h-2.38Z"/><path class="cls-1" d="M162.93,107.27c-.87.92-1.69,1.56-2.46,1.93-.77.37-1.54.56-2.33.56-1.23,0-2.26-.44-3.07-1.32-.81-.88-1.22-2.09-1.22-3.61,0-1.09.24-2.03.72-2.84.48-.81,1.15-1.43,2.02-1.86.86-.43,2.1-.68,3.71-.76,1.36-.07,2.29-.15,2.8-.24.51-.09.94-.21,1.3-.38.23-.81.34-1.47.34-1.98,0-.71-.27-1.28-.81-1.7-.54-.43-1.32-.64-2.33-.64-2.05,0-3.38,1.02-3.99,3.07l-2.39-.24c1.04-3.47,3.21-5.21,6.53-5.21,1.64,0,2.93.43,3.89,1.29.96.86,1.44,1.93,1.44,3.23,0,.89-.13,1.93-.38,3.13l-.91,4.2c-.29,1.34-.44,2.42-.44,3.24,0,.57.09,1.32.27,2.25h-2.44c-.12-.53-.2-1.24-.24-2.11M163.98,100.78c-.6.28-1.6.49-3.03.64-1.45.15-2.45.34-2.99.57-.54.23-.97.59-1.27,1.07-.3.48-.45,1.03-.45,1.66,0,.86.24,1.54.73,2.04.48.5,1.13.75,1.93.75s1.5-.23,2.21-.7c.71-.47,1.29-1.14,1.73-2.03.45-.88.83-2.22,1.14-4.01"/><path class="cls-1" d="M168.48,109.38l4.01-23.42h2.38l-1.44,8.37c.77-.86,1.46-1.46,2.07-1.8.61-.34,1.24-.5,1.86-.5,1.29,0,2.38.58,3.26,1.73.89,1.16,1.33,2.88,1.33,5.18,0,2.12-.36,4.04-1.07,5.76-.72,1.72-1.6,2.99-2.64,3.82-1.04.83-2.07,1.24-3.09,1.24-1.91,0-3.26-1.2-4.05-3.61l-.56,3.23h-2.07ZM172,102.4l-.02.61c0,1.43.29,2.52.87,3.26.58.74,1.3,1.11,2.15,1.11.68,0,1.36-.28,2.02-.84.66-.56,1.26-1.59,1.8-3.09.54-1.51.81-2.98.81-4.43,0-1.54-.29-2.7-.86-3.49-.57-.78-1.29-1.17-2.15-1.17-.77,0-1.52.38-2.24,1.13-.73.75-1.34,2-1.84,3.73-.36,1.28-.54,2.33-.54,3.18"/><polygon class="cls-1" points="183.21 109.38 187.22 85.96 189.6 85.96 185.59 109.38 183.21 109.38"/><path class="cls-1" d="M199.57,103.61l2.32.29c-.38,1.65-1.27,3.09-2.67,4.31-1.16,1.03-2.46,1.55-3.89,1.55-1.01,0-1.93-.27-2.77-.82-.83-.55-1.49-1.37-1.98-2.46-.49-1.09-.74-2.39-.74-3.91,0-1.99.37-3.85,1.13-5.57.75-1.73,1.67-2.99,2.76-3.78,1.09-.79,2.26-1.19,3.53-1.19,1.61,0,2.92.61,3.94,1.84,1.02,1.22,1.53,2.96,1.53,5.19,0,.83-.06,1.68-.17,2.56h-10.27c-.03.34-.05.64-.05.91,0,1.59.31,2.8.91,3.63.61.82,1.34,1.23,2.2,1.23s1.61-.32,2.4-.97c.79-.65,1.4-1.58,1.84-2.8M192.65,99.41h7.83v-.59c0-1.52-.3-2.65-.9-3.41-.6-.76-1.36-1.14-2.29-1.14-1,0-1.92.43-2.76,1.28-.84.85-1.46,2.14-1.88,3.86"/><path class="cls-1" d="M210.58,115.88l4.02-23.47h2.22l-.42,2.36c.84-1.07,1.57-1.79,2.21-2.17.64-.38,1.31-.57,2.01-.57,1.28,0,2.37.58,3.25,1.74.89,1.16,1.33,2.86,1.33,5.1,0,2.11-.36,4.03-1.08,5.77-.72,1.74-1.66,3.08-2.84,4.03-.91.74-1.87,1.1-2.87,1.1-1.66,0-2.96-1.04-3.87-3.12l-1.58,9.23h-2.38ZM215.26,102.99c0,1.42.29,2.51.87,3.26.58.75,1.3,1.12,2.17,1.12.69,0,1.29-.23,1.81-.68.74-.66,1.38-1.75,1.92-3.26.54-1.52.81-3.04.81-4.59,0-1.45-.29-2.56-.87-3.33-.58-.77-1.28-1.16-2.11-1.16-.66,0-1.33.3-2,.89-.68.59-1.28,1.63-1.81,3.12-.53,1.49-.79,3.03-.79,4.63"/><path class="cls-1" d="M236.03,107.27c-.87.92-1.69,1.56-2.46,1.93-.77.37-1.54.56-2.33.56-1.23,0-2.26-.44-3.07-1.32-.81-.88-1.22-2.09-1.22-3.61,0-1.09.24-2.03.72-2.84.48-.81,1.15-1.43,2.02-1.86.86-.43,2.1-.68,3.71-.76,1.36-.07,2.29-.15,2.8-.24.51-.09.94-.21,1.3-.38.23-.81.34-1.47.34-1.98,0-.71-.27-1.28-.8-1.7-.54-.43-1.32-.64-2.34-.64-2.05,0-3.38,1.02-3.99,3.07l-2.39-.24c1.04-3.47,3.21-5.21,6.53-5.21,1.64,0,2.93.43,3.89,1.29.96.86,1.44,1.93,1.44,3.23,0,.89-.13,1.93-.38,3.13l-.91,4.2c-.29,1.34-.44,2.42-.44,3.24,0,.57.09,1.32.27,2.25h-2.44c-.12-.53-.2-1.24-.24-2.11M237.07,100.78c-.6.28-1.6.49-3.03.64-1.45.15-2.45.34-2.99.57-.54.23-.97.59-1.27,1.07-.3.48-.45,1.03-.45,1.66,0,.86.24,1.54.73,2.04.48.5,1.13.75,1.93.75s1.5-.23,2.21-.7c.71-.47,1.29-1.14,1.73-2.03.45-.88.83-2.22,1.14-4.01"/><path class="cls-1" d="M241.59,109.38l2.9-16.96h2.11l-.59,3.47c1.39-2.57,2.79-3.85,4.18-3.85.48,0,1.06.21,1.75.62l-.97,2.68c-.41-.36-.85-.54-1.31-.54-.87,0-1.74.57-2.6,1.72-.86,1.15-1.54,3.17-2.03,6.06l-1.19,6.81h-2.25Z"/><path class="cls-1" d="M255.8,107.03l-.4,2.36c-.55.18-1.08.27-1.6.27-.86,0-1.54-.23-2.04-.7-.5-.47-.75-1.1-.75-1.88,0-.37.11-1.24.35-2.59l1.68-9.83h-1.87l.38-2.24h1.87l.7-4.07,2.73-2-1.04,6.07h2.32l-.38,2.24h-2.32l-1.6,9.36c-.2,1.21-.3,1.92-.3,2.14,0,.38.08.65.25.82.17.17.41.26.74.26.49,0,.92-.06,1.31-.19"/><path class="cls-1" d="M257.95,109.38l2.9-16.96h2.17l-.5,2.96c1.01-1.26,1.93-2.13,2.76-2.61.83-.48,1.63-.73,2.41-.73,1.09,0,1.97.36,2.64,1.09.67.73,1.01,1.76,1.01,3.1,0,.59-.12,1.56-.37,2.9l-1.85,10.26h-2.38l1.95-10.75c.19-1.05.29-1.83.29-2.33,0-.58-.17-1.05-.51-1.38-.34-.34-.8-.5-1.38-.5-1.21,0-2.29.53-3.26,1.58-.96,1.05-1.67,2.89-2.13,5.5l-1.36,7.89h-2.38Z"/><path class="cls-1" d="M283.1,103.61l2.31.29c-.38,1.65-1.27,3.09-2.67,4.31-1.16,1.03-2.46,1.55-3.89,1.55-1.01,0-1.93-.27-2.77-.82-.83-.55-1.49-1.37-1.98-2.46-.49-1.09-.74-2.39-.74-3.91,0-1.99.38-3.85,1.13-5.57.75-1.73,1.67-2.99,2.75-3.78,1.09-.79,2.26-1.19,3.53-1.19,1.61,0,2.92.61,3.94,1.84,1.02,1.22,1.53,2.96,1.53,5.19,0,.83-.06,1.68-.17,2.56h-10.27c-.03.34-.05.64-.05.91,0,1.59.3,2.8.91,3.63.61.82,1.34,1.23,2.2,1.23s1.61-.32,2.4-.97c.79-.65,1.4-1.58,1.84-2.8M276.18,99.41h7.82v-.59c0-1.52-.3-2.65-.9-3.41-.6-.76-1.36-1.14-2.29-1.14-1,0-1.92.43-2.76,1.28-.84.85-1.46,2.14-1.88,3.86"/><path class="cls-1" d="M287.82,109.38l2.9-16.96h2.11l-.59,3.47c1.39-2.57,2.78-3.85,4.18-3.85.48,0,1.06.21,1.75.62l-.97,2.68c-.41-.36-.85-.54-1.31-.54-.87,0-1.74.57-2.6,1.72-.86,1.15-1.54,3.17-2.04,6.06l-1.19,6.81h-2.25Z"/><path class="cls-1" d="M295.63,7.37c0-3.36,2.61-6.09,5.86-6.09s5.82,2.73,5.82,6.09-2.59,6.13-5.82,6.13-5.86-2.73-5.86-6.13M306.3,7.37c0-2.77-2.15-5.03-4.8-5.03s-4.83,2.26-4.83,5.03,2.16,5.06,4.83,5.06,4.8-2.26,4.8-5.06M300.24,7.77v3.11h-1.06V3.7h2.21c1.27,0,2.57.36,2.57,1.98,0,.83-.49,1.48-1.4,1.67v.03c.94.2,1.06.63,1.16,1.42.1.68.17,1.43.4,2.08h-1.36c-.08-.41-.19-.86-.24-1.29-.07-.61-.07-1.19-.38-1.52-.27-.3-.62-.26-.99-.3h-.91ZM301.39,6.65c1.01-.03,1.24-.47,1.24-1.03s-.23-.81-1.09-.81h-1.29v1.84h1.14Z"/><path class="cls-1" d="M149.27,23.14l-.36-14.35-6.26,14.4,6.62-.04ZM121.75,41.87L143.44.79l13.48.04,2.97,41.07-10.61-.04-.1-10.5h-10.09l-5.15,10.42-12.19.08Z"/><path class="cls-1" d="M185.05,18.2c3.48,0,6.98-.51,7.98-4.72,1.01-4.21-2.24-4.72-5.73-4.72h-4.23l-2.27,9.44h4.24ZM196.15,41.88h-11.37l-5.88-15.71-3.77,15.7h-10.87L174.11.79h18.16c6.64,0,12.56,5.35,10.18,13.98-2.25,8.18-7.25,10.15-12.91,10.84l6.6,16.26Z"/><path class="cls-1" d="M108.53,33.59c-6.61-.5-8.21-6.66-7.11-12.73,1.17-6.42,3.73-10.57,11.42-11.25,2.75-.25,5.76,1.11,7.93,3.96l4.05-9.89c-2.73-1.72-5.96-3.03-10.33-3.53-12.37-1.41-22.41,7.74-24.18,21.35-1.8,13.83,3.47,20.93,16.44,21.35,4.36.15,6.39-.35,9.74-1.77l2.76-10.1c-3.61,2.37-8.83,2.76-10.71,2.62"/><path class="cls-1" d="M66.03,8.07c-7.45,0-10.09,7.21-11.09,13.68-.95,6.12-.53,13.33,6.92,13.33s10.09-7.21,11.04-13.33c1-6.47.58-13.68-6.86-13.68M43.47,21.57C45.58,7.95,54.19.05,67.26.05s19.26,7.9,17.15,21.52c-2.1,13.62-10.71,21.52-23.79,21.52s-19.25-7.9-17.15-21.52"/><path class="cls-1" d="M19.16,33.9c2.72,0,5.15-1.71,5.76-4.27.54-2.27-.46-4.43-2.87-4.61h-7.13l-2.13,8.88h6.37ZM16.82,17.12l5.56-.06c2.94,0,5.13-1.19,5.88-4.32.56-2.33-.95-3.98-3.51-3.98h-5.93l-2.01,8.36ZM0,41.87L9.86.79h18.82c7.38.06,12.75,3.53,11.02,10.75-1.22,5.07-6.04,8.14-10.65,9l-.03.11c5.04.74,8.45,4.21,7.05,10.07-2.86,11.94-17.25,11.15-17.63,11.15H0Z"/><path class="cls-1" d="M119.92,58.37c1.85,0,3.7-.27,4.24-2.51.54-2.23-1.19-2.5-3.04-2.5h-2.25l-1.2,5.01h2.25ZM125.81,70.95h-6.04l-3.13-8.34-2,8.34h-5.77l5.23-21.81h9.65c3.52,0,6.67,2.85,5.41,7.42-1.19,4.34-3.85,5.39-6.85,5.76l3.51,8.64Z"/><path class="cls-1" d="M100.75,66.66c-.47.04-.87.04-1.14.01-3.56-.27-4.42-3.59-3.83-6.86.63-3.46,2.01-5.69,6.15-6.06,1.49-.13,3.11.6,4.28,2.13l2.18-5.33c-1.47-.93-3.21-1.63-5.57-1.9-6.66-.76-12.07,4.17-13.03,11.51-.97,7.45,1.87,11.28,8.86,11.5,2.34.08,4.84-.06,6.65-.83l2.31-9.25h-5.57l-1.29,5.08Z"/><path class="cls-1" d="M187.83,58.37c1.85,0,3.71-.27,4.24-2.51.54-2.23-1.19-2.5-3.04-2.5h-2.25l-1.2,5.01h2.25ZM184.49,62.69l-1.93,8.25h-5.78l5.23-21.81h9.65c3.52,0,6.67,2.85,5.41,7.42-1.19,4.34-3.92,5.78-6.92,6.14h-5.66Z"/><path class="cls-1" d="M142.86,52.98c-3.92-.03-5.34,3.76-5.9,7.16-.52,3.22-.33,7.02,3.59,7.05,3.92.03,5.34-3.75,5.87-6.98.55-3.41.36-7.2-3.56-7.23M130.93,60.01c1.16-7.16,5.73-11.29,12.61-11.24,6.89.05,10.11,4.24,8.95,11.41-1.16,7.16-5.73,11.29-12.62,11.24-6.88-.06-10.11-4.24-8.94-11.4"/><path class="cls-1" d="M164.06,49.22l-2.83,12.99c-.25,1.18-.44,2.4-.06,3.32.52,1.22,1.73,1.82,3.13,1.85,3.62.07,4.76-3.05,5.25-5.23l2.77-12.79,5.55.1-2.74,12.66c-.53,2.42-1.43,5.05-3.06,6.64-2.55,2.57-6.36,3.02-8.95,2.97-9.72-.18-8.35-6.6-7.57-10.18l2.73-12.45,5.76.11Z"/><path class="cls-1" d="M273.6,20.04h-10.41L246.39,1.32h-28.63l-3.21,13.54h26.31l16.69,18.87h16.05c3.79,0,6.85-3.07,6.85-6.85s-3.07-6.85-6.85-6.85"/><path class="cls-1" d="M269.88,38.86h-15.38l-16.87-18.82-24.43.05-3.14,13.49h21.35l16.66,18.75,21.81.05c3.74,0,6.76-3.03,6.76-6.76s-3.03-6.77-6.76-6.77"/><path class="cls-1" d="M298.91,25.23c0-13.23-10.72-23.95-23.95-23.95-.5,0-1,.02-1.49.05l-3.26,13.86c1.03-.29,2.11-.45,3.24-.45,6.64,0,12.02,5.38,12.02,12.02,0,4.8-2.81,8.94-6.88,10.87,2.01,2.15,3.24,5.03,3.24,8.2,0,5.8-4.11,10.65-9.58,11.77v-.04h-26.51l-16.67-18.58h-20.35l-3.09,13.41h17.04s16.87,18.91,16.87,18.91h32.72c.1,0,.2,0,.31,0,13.11,0,23.74-10.63,23.74-23.74,0-3.07-.59-6-1.65-8.69,2.69-3.87,4.27-8.57,4.27-13.65"/><polygon class="cls-1" points="65.5 107.94 66.06 104.66 68.75 104.66 68.19 107.94 65.5 107.94"/><polygon class="cls-1" points="72.96 107.94 73.52 104.66 76.21 104.66 75.65 107.94 72.96 107.94"/><polygon class="cls-1" points="80.42 107.94 80.98 104.66 83.67 104.66 83.11 107.94 80.42 107.94"/><path class="cls-1" d="M104.79,107.27c-.87.92-1.69,1.56-2.46,1.93-.77.37-1.54.56-2.33.56-1.23,0-2.26-.44-3.07-1.32-.81-.88-1.22-2.09-1.22-3.61,0-1.09.24-2.03.72-2.84.48-.81,1.15-1.43,2.02-1.86.86-.43,2.1-.68,3.71-.76,1.36-.07,2.29-.15,2.8-.24.51-.09.94-.21,1.3-.38.23-.81.34-1.47.34-1.98,0-.71-.27-1.28-.81-1.7-.54-.43-1.32-.64-2.34-.64-2.05,0-3.38,1.02-3.99,3.07l-2.39-.24c1.04-3.47,3.21-5.21,6.53-5.21,1.64,0,2.94.43,3.89,1.29.96.86,1.44,1.93,1.44,3.23,0,.89-.13,1.93-.38,3.13l-.91,4.2c-.29,1.34-.44,2.42-.44,3.24,0,.57.09,1.32.27,2.25h-2.43c-.12-.53-.2-1.24-.25-2.11M105.83,100.78c-.6.28-1.6.49-3.02.64-1.46.15-2.45.34-3,.57-.54.23-.96.59-1.27,1.07-.3.48-.45,1.03-.45,1.66,0,.86.24,1.54.72,2.04.48.5,1.13.75,1.94.75.76,0,1.5-.23,2.21-.7.71-.47,1.29-1.14,1.73-2.03.45-.88.83-2.22,1.14-4.01"/><path class="cls-1" d="M117.81,109.38l2.9-16.96h2.11l-.59,3.47c1.39-2.57,2.78-3.85,4.18-3.85.48,0,1.06.21,1.75.62l-.97,2.68c-.41-.36-.85-.54-1.31-.54-.87,0-1.74.57-2.6,1.72-.86,1.15-1.54,3.17-2.04,6.06l-1.19,6.81h-2.25Z"/><path class="cls-1" d="M136.94,103.61l2.32.29c-.38,1.65-1.27,3.09-2.67,4.31-1.16,1.03-2.46,1.55-3.89,1.55-1.01,0-1.93-.27-2.77-.82-.83-.55-1.49-1.37-1.98-2.46-.49-1.09-.74-2.39-.74-3.91,0-1.99.37-3.85,1.13-5.57.75-1.73,1.67-2.99,2.76-3.78,1.08-.79,2.26-1.19,3.53-1.19,1.61,0,2.92.61,3.94,1.84,1.02,1.22,1.53,2.96,1.53,5.19,0,.83-.06,1.68-.17,2.56h-10.27c-.03.34-.05.64-.05.91,0,1.59.31,2.8.91,3.63.61.82,1.34,1.23,2.2,1.23s1.61-.32,2.4-.97c.79-.65,1.4-1.58,1.84-2.8M130.02,99.41h7.83v-.59c0-1.52-.3-2.65-.9-3.41-.6-.76-1.36-1.14-2.29-1.14-1,0-1.92.43-2.76,1.28-.84.85-1.46,2.14-1.88,3.86"/><polygon class="cls-1" points="141.46 109.38 145.47 85.96 147.85 85.96 143.84 109.38 141.46 109.38"/><path class="cls-1" d="M147.51,109.38l2.9-16.96h2.38l-2.9,16.96h-2.38ZM150.96,89.23l.56-3.27h2.38l-.56,3.27h-2.38Z"/><path class="cls-1" d="M162.93,107.27c-.87.92-1.69,1.56-2.46,1.93-.77.37-1.54.56-2.33.56-1.23,0-2.26-.44-3.07-1.32-.81-.88-1.22-2.09-1.22-3.61,0-1.09.24-2.03.72-2.84.48-.81,1.15-1.43,2.02-1.86.86-.43,2.1-.68,3.71-.76,1.36-.07,2.29-.15,2.8-.24.51-.09.94-.21,1.3-.38.23-.81.34-1.47.34-1.98,0-.71-.27-1.28-.81-1.7-.54-.43-1.32-.64-2.33-.64-2.05,0-3.38,1.02-3.99,3.07l-2.39-.24c1.04-3.47,3.21-5.21,6.53-5.21,1.64,0,2.93.43,3.89,1.29.96.86,1.44,1.93,1.44,3.23,0,.89-.13,1.93-.38,3.13l-.91,4.2c-.29,1.34-.44,2.42-.44,3.24,0,.57.09,1.32.27,2.25h-2.44c-.12-.53-.2-1.24-.24-2.11M163.98,100.78c-.6.28-1.6.49-3.03.64-1.45.15-2.45.34-2.99.57-.54.23-.97.59-1.27,1.07-.3.48-.45,1.03-.45,1.66,0,.86.24,1.54.73,2.04.48.5,1.13.75,1.93.75s1.5-.23,2.21-.7c.71-.47,1.29-1.14,1.73-2.03.45-.88.83-2.22,1.14-4.01"/><path class="cls-1" d="M168.48,109.38l4.01-23.42h2.38l-1.44,8.37c.77-.86,1.46-1.46,2.07-1.8.61-.34,1.24-.5,1.86-.5,1.29,0,2.38.58,3.26,1.73.89,1.16,1.33,2.88,1.33,5.18,0,2.12-.36,4.04-1.07,5.76-.72,1.72-1.6,2.99-2.64,3.82-1.04.83-2.07,1.24-3.09,1.24-1.91,0-3.26-1.2-4.05-3.61l-.56,3.23h-2.07ZM172,102.4l-.02.61c0,1.43.29,2.52.87,3.26.58.74,1.3,1.11,2.15,1.11.68,0,1.36-.28,2.02-.84.66-.56,1.26-1.59,1.8-3.09.54-1.51.81-2.98.81-4.43,0-1.54-.29-2.7-.86-3.49-.57-.78-1.29-1.17-2.15-1.17-.77,0-1.52.38-2.24,1.13-.73.75-1.34,2-1.84,3.73-.36,1.28-.54,2.33-.54,3.18"/><polygon class="cls-1" points="183.21 109.38 187.22 85.96 189.6 85.96 185.59 109.38 183.21 109.38"/><path class="cls-1" d="M199.57,103.61l2.32.29c-.38,1.65-1.27,3.09-2.67,4.31-1.16,1.03-2.46,1.55-3.89,1.55-1.01,0-1.93-.27-2.77-.82-.83-.55-1.49-1.37-1.98-2.46-.49-1.09-.74-2.39-.74-3.91,0-1.99.37-3.85,1.13-5.57.75-1.73,1.67-2.99,2.76-3.78,1.09-.79,2.26-1.19,3.53-1.19,1.61,0,2.92.61,3.94,1.84,1.02,1.22,1.53,2.96,1.53,5.19,0,.83-.06,1.68-.17,2.56h-10.27c-.03.34-.05.64-.05.91,0,1.59.31,2.8.91,3.63.61.82,1.34,1.23,2.2,1.23s1.61-.32,2.4-.97c.79-.65,1.4-1.58,1.84-2.8M192.65,99.41h7.83v-.59c0-1.52-.3-2.65-.9-3.41-.6-.76-1.36-1.14-2.29-1.14-1,0-1.92.43-2.76,1.28-.84.85-1.46,2.14-1.88,3.86"/><path class="cls-1" d="M210.58,115.88l4.02-23.47h2.22l-.42,2.36c.84-1.07,1.57-1.79,2.21-2.17.64-.38,1.31-.57,2.01-.57,1.28,0,2.37.58,3.25,1.74.89,1.16,1.33,2.86,1.33,5.1,0,2.11-.36,4.03-1.08,5.77-.72,1.74-1.66,3.08-2.84,4.03-.91.74-1.87,1.1-2.87,1.1-1.66,0-2.96-1.04-3.87-3.12l-1.58,9.23h-2.38ZM215.26,102.99c0,1.42.29,2.51.87,3.26.58.75,1.3,1.12,2.17,1.12.69,0,1.29-.23,1.81-.68.74-.66,1.38-1.75,1.92-3.26.54-1.52.81-3.04.81-4.59,0-1.45-.29-2.56-.87-3.33-.58-.77-1.28-1.16-2.11-1.16-.66,0-1.33.3-2,.89-.68.59-1.28,1.63-1.81,3.12-.53,1.49-.79,3.03-.79,4.63"/><path class="cls-1" d="M236.03,107.27c-.87.92-1.69,1.56-2.46,1.93-.77.37-1.54.56-2.33.56-1.23,0-2.26-.44-3.07-1.32-.81-.88-1.22-2.09-1.22-3.61,0-1.09.24-2.03.72-2.84.48-.81,1.15-1.43,2.02-1.86.86-.43,2.1-.68,3.71-.76,1.36-.07,2.29-.15,2.8-.24.51-.09.94-.21,1.3-.38.23-.81.34-1.47.34-1.98,0-.71-.27-1.28-.8-1.7-.54-.43-1.32-.64-2.34-.64-2.05,0-3.38,1.02-3.99,3.07l-2.39-.24c1.04-3.47,3.21-5.21,6.53-5.21,1.64,0,2.93.43,3.89,1.29.96.86,1.44,1.93,1.44,3.23,0,.89-.13,1.93-.38,3.13l-.91,4.2c-.29,1.34-.44,2.42-.44,3.24,0,.57.09,1.32.27,2.25h-2.44c-.12-.53-.2-1.24-.24-2.11M237.07,100.78c-.6.28-1.6.49-3.03.64-1.45.15-2.45.34-2.99.57-.54.23-.97.59-1.27,1.07-.3.48-.45,1.03-.45,1.66,0,.86.24,1.54.73,2.04.48.5,1.13.75,1.93.75s1.5-.23,2.21-.7c.71-.47,1.29-1.14,1.73-2.03.45-.88.83-2.22,1.14-4.01"/><path class="cls-1" d="M241.59,109.38l2.9-16.96h2.11l-.59,3.47c1.39-2.57,2.79-3.85,4.18-3.85.48,0,1.06.21,1.75.62l-.97,2.68c-.41-.36-.85-.54-1.31-.54-.87,0-1.74.57-2.6,1.72-.86,1.15-1.54,3.17-2.03,6.06l-1.19,6.81h-2.25Z"/><path class="cls-1" d="M255.8,107.03l-.4,2.36c-.55.18-1.08.27-1.6.27-.86,0-1.54-.23-2.04-.7-.5-.47-.75-1.1-.75-1.88,0-.37.11-1.24.35-2.59l1.68-9.83h-1.87l.38-2.24h1.87l.7-4.07,2.73-2-1.04,6.07h2.32l-.38,2.24h-2.32l-1.6,9.36c-.2,1.21-.3,1.92-.3,2.14,0,.38.08.65.25.82.17.17.41.26.74.26.49,0,.92-.06,1.31-.19"/><path class="cls-1" d="M257.95,109.38l2.9-16.96h2.17l-.5,2.96c1.01-1.26,1.93-2.13,2.76-2.61.83-.48,1.63-.73,2.41-.73,1.09,0,1.97.36,2.64,1.09.67.73,1.01,1.76,1.01,3.1,0,.59-.12,1.56-.37,2.9l-1.85,10.26h-2.38l1.95-10.75c.19-1.05.29-1.83.29-2.33,0-.58-.17-1.05-.51-1.38-.34-.34-.8-.5-1.38-.5-1.21,0-2.29.53-3.26,1.58-.96,1.05-1.67,2.89-2.13,5.5l-1.36,7.89h-2.38Z"/><path class="cls-1" d="M283.1,103.61l2.31.29c-.38,1.65-1.27,3.09-2.67,4.31-1.16,1.03-2.46,1.55-3.89,1.55-1.01,0-1.93-.27-2.77-.82-.83-.55-1.49-1.37-1.98-2.46-.49-1.09-.74-2.39-.74-3.91,0-1.99.38-3.85,1.13-5.57.75-1.73,1.67-2.99,2.75-3.78,1.09-.79,2.26-1.19,3.53-1.19,1.61,0,2.92.61,3.94,1.84,1.02,1.22,1.53,2.96,1.53,5.19,0,.83-.06,1.68-.17,2.56h-10.27c-.03.34-.05.64-.05.91,0,1.59.3,2.8.91,3.63.61.82,1.34,1.23,2.2,1.23s1.61-.32,2.4-.97c.79-.65,1.4-1.58,1.84-2.8M276.18,99.41h7.82v-.59c0-1.52-.3-2.65-.9-3.41-.6-.76-1.36-1.14-2.29-1.14-1,0-1.92.43-2.76,1.28-.84.85-1.46,2.14-1.88,3.86"/><path class="cls-1" d="M287.82,109.38l2.9-16.96h2.11l-.59,3.47c1.39-2.57,2.78-3.85,4.18-3.85.48,0,1.06.21,1.75.62l-.97,2.68c-.41-.36-.85-.54-1.31-.54-.87,0-1.74.57-2.6,1.72-.86,1.15-1.54,3.17-2.04,6.06l-1.19,6.81h-2.25Z"/><path class="cls-1" d="M295.63,7.37c0-3.36,2.61-6.09,5.86-6.09s5.82,2.73,5.82,6.09-2.59,6.13-5.82,6.13-5.86-2.73-5.86-6.13M306.3,7.37c0-2.77-2.15-5.03-4.8-5.03s-4.83,2.26-4.83,5.03,2.16,5.06,4.83,5.06,4.8-2.26,4.8-5.06M300.24,7.77v3.11h-1.06V3.7h2.21c1.27,0,2.57.36,2.57,1.98,0,.83-.49,1.48-1.4,1.67v.03c.94.2,1.06.63,1.16,1.42.1.68.17,1.43.4,2.08h-1.36c-.08-.41-.19-.86-.24-1.29-.07-.61-.07-1.19-.38-1.52-.27-.3-.62-.26-.99-.3h-.91ZM301.39,6.65c1.01-.03,1.24-.47,1.24-1.03s-.23-.81-1.09-.81h-1.29v1.84h1.14Z"/><path class="cls-1" d="M149.27,23.14l-.36-14.35-6.26,14.4,6.62-.04ZM121.75,41.87L143.44.79l13.48.04,2.97,41.07-10.61-.04-.1-10.5h-10.09l-5.15,10.42-12.19.08Z"/><path class="cls-1" d="M185.05,18.2c3.48,0,6.98-.51,7.98-4.72,1.01-4.21-2.24-4.72-5.73-4.72h-4.23l-2.27,9.44h4.24ZM196.15,41.88h-11.37l-5.88-15.71-3.77,15.7h-10.87L174.11.79h18.16c6.64,0,12.56,5.35,10.18,13.98-2.25,8.18-7.25,10.15-12.91,10.84l6.6,16.26Z"/><path class="cls-1" d="M108.53,33.59c-6.61-.5-8.21-6.66-7.11-12.73,1.17-6.42,3.73-10.57,11.42-11.25,2.75-.25,5.76,1.11,7.93,3.96l4.05-9.89c-2.73-1.72-5.96-3.03-10.33-3.53-12.37-1.41-22.41,7.74-24.18,21.35-1.8,13.83,3.47,20.93,16.44,21.35,4.36.15,6.39-.35,9.74-1.77l2.76-10.1c-3.61,2.37-8.83,2.76-10.71,2.62"/><path class="cls-1" d="M66.03,8.07c-7.45,0-10.09,7.21-11.09,13.68-.95,6.12-.53,13.33,6.92,13.33s10.09-7.21,11.04-13.33c1-6.47.58-13.68-6.86-13.68M43.47,21.57C45.58,7.95,54.19.05,67.26.05s19.26,7.9,17.15,21.52c-2.1,13.62-10.71,21.52-23.79,21.52s-19.25-7.9-17.15-21.52"/><path class="cls-1" d="M19.16,33.9c2.72,0,5.15-1.71,5.76-4.27.54-2.27-.46-4.43-2.87-4.61h-7.13l-2.13,8.88h6.37ZM16.82,17.12l5.56-.06c2.94,0,5.13-1.19,5.88-4.32.56-2.33-.95-3.98-3.51-3.98h-5.93l-2.01,8.36ZM0,41.87L9.86.79h18.82c7.38.06,12.75,3.53,11.02,10.75-1.22,5.07-6.04,8.14-10.65,9l-.03.11c5.04.74,8.45,4.21,7.05,10.07-2.86,11.94-17.25,11.15-17.63,11.15H0Z"/><path class="cls-1" d="M119.92,58.37c1.85,0,3.7-.27,4.24-2.51.54-2.23-1.19-2.5-3.04-2.5h-2.25l-1.2,5.01h2.25ZM125.81,70.95h-6.04l-3.13-8.34-2,8.34h-5.77l5.23-21.81h9.65c3.52,0,6.67,2.85,5.41,7.42-1.19,4.34-3.85,5.39-6.85,5.76l3.51,8.64Z"/><path class="cls-1" d="M100.75,66.66c-.47.04-.87.04-1.14.01-3.56-.27-4.42-3.59-3.83-6.86.63-3.46,2.01-5.69,6.15-6.06,1.49-.13,3.11.6,4.28,2.13l2.18-5.33c-1.47-.93-3.21-1.63-5.57-1.9-6.66-.76-12.07,4.17-13.03,11.51-.97,7.45,1.87,11.28,8.86,11.5,2.34.08,4.84-.06,6.65-.83l2.31-9.25h-5.57l-1.29,5.08Z"/><path class="cls-1" d="M187.83,58.37c1.85,0,3.71-.27,4.24-2.51.54-2.23-1.19-2.5-3.04-2.5h-2.25l-1.2,5.01h2.25ZM184.49,62.69l-1.93,8.25h-5.78l5.23-21.81h9.65c3.52,0,6.67,2.85,5.41,7.42-1.19,4.34-3.92,5.78-6.92,6.14h-5.66Z"/><path class="cls-1" d="M142.86,52.98c-3.92-.03-5.34,3.76-5.9,7.16-.52,3.22-.33,7.02,3.59,7.05,3.92.03,5.34-3.75,5.87-6.98.55-3.41.36-7.2-3.56-7.23M130.93,60.01c1.16-7.16,5.73-11.29,12.61-11.24,6.89.05,10.11,4.24,8.95,11.41-1.16,7.16-5.73,11.29-12.62,11.24-6.88-.06-10.11-4.24-8.94-11.4"/><path class="cls-1" d="M164.06,49.22l-2.83,12.99c-.25,1.18-.44,2.4-.06,3.32.52,1.22,1.73,1.82,3.13,1.85,3.62.07,4.76-3.05,5.25-5.23l2.77-12.79,5.55.1-2.74,12.66c-.53,2.42-1.43,5.05-3.06,6.64-2.55,2.57-6.36,3.02-8.95,2.97-9.72-.18-8.35-6.6-7.57-10.18l2.73-12.45,5.76.11Z"/><path class="cls-1" d="M273.6,20.04h-10.41L246.39,1.32h-28.63l-3.21,13.54h26.31l16.69,18.87h16.05c3.79,0,6.85-3.07,6.85-6.85s-3.07-6.85-6.85-6.85"/><path class="cls-1" d="M269.88,38.86h-15.38l-16.87-18.82-24.43.05-3.14,13.49h21.35l16.66,18.75,21.81.05c3.74,0,6.76-3.03,6.76-6.76s-3.03-6.77-6.76-6.77"/><path class="cls-1" d="M298.91,25.23c0-13.23-10.72-23.95-23.95-23.95-.5,0-1,.02-1.49.05l-3.26,13.86c1.03-.29,2.11-.45,3.24-.45,6.64,0,12.02,5.38,12.02,12.02,0,4.8-2.81,8.94-6.88,10.87,2.01,2.15,3.24,5.03,3.24,8.2,0,5.8-4.11,10.65-9.58,11.77v-.04h-26.51l-16.67-18.58h-20.35l-3.09,13.41h17.04s16.87,18.91,16.87,18.91h32.72c.1,0,.2,0,.31,0,13.11,0,23.74-10.63,23.74-23.74,0-3.07-.59-6-1.65-8.69,2.69-3.87,4.27-8.57,4.27-13.65"/></g></svg>