<?xml version="1.0" encoding="UTF-8"?><svg id="Layer_2" xmlns="http://www.w3.org/2000/svg" viewBox="0 0 246.5 133.32"><defs><style>.cls-1{fill:#fff;stroke-width:0px;}</style></defs><g id="Layer_1-2"><path class="cls-1" d="M126.73,113.47c-1.85,0-3.77,0-3.77-2.16v-21.31c0-7.23-4-9.93-9.54-9.93-4.69,0-8.62,3.31-12,5.62v-4.92l-.85-.7c-.86.36-1.76.8-2.68,1.18-1.99.82-4.8,1.3-7.94,1.3h-2.41c-1.15-.01-2.54-.01-3.46-.47-3.01-1.46-5.85-2.01-9.39-2.01-7.08,0-14.78,4.55-14.78,12.32,0,5,3.15,8.78,7.54,10.78l-6.7,4.62c0,5.23,2.54,7.7,7.77,8.15v.15c-5.7,2.39-9.08,3.93-9.08,9.01,0,5.7,7.54,8.23,14.78,8.23,8.15,0,20.01-4.15,20.01-16.01,0-.64-.07-1.23-.17-1.78,1.13-.04,2.27-.06,3.42-.06,1.29,0,2.59.03,3.88.08l.05-3.93v-23.24c1.69-1.08,4.54-2.62,7.08-2.62,3.46,0,5.85,1.77,5.85,6.47v19.24c0,2-2.23,2-3.77,2h-.77v2.31c3.08-.15,6.08-.31,9.16-.31s5.77.15,8.69.31v-2.31h-.92ZM74.61,82.37c4.93,0,6.31,7.08,6.31,10.85s-1.07,8.54-5.77,8.54-6.62-6.31-6.62-10.16,1.07-9.24,6.08-9.24M75.61,130.55c-5.62,0-9.85-1.69-9.85-6.85,0-5.85,7.85-6.77,12.62-6.77,4.15,0,9.54.54,9.54,5.54,0,5.31-7.16,8.08-12.31,8.08M92.8,111.16c0,.46-.08.83-.2,1.11-1.85-2.28-5.03-3.27-8.44-3.27s-6.77.38-10.16.38c-3,0-6.08-.07-5.84-4l1.85-1.54c1.61.46,3.31.69,5,.69,7.32,0,14.55-4.77,14.55-12.16,0-2-.34-3.81-1.26-5.96.92.23,1.74.58,2.66.81,1.69.46,1.85.92,1.85,2.15v21.78Z"/><path class="cls-1" d="M48.24,69.67c-2.58,0-4.63-2.05-4.63-4.63s2.05-4.63,4.63-4.63,4.63,2.13,4.63,4.63-2.05,4.63-4.63,4.63"/><path class="cls-1" d="M167.15,115.34c-3.32,0-11.39-.14-13.59.75l-.76-.6v-5.39c-3.26,2.73-7.59,5.99-11.99,5.99-6.76,0-9.26-3.72-9.26-8.88v-20.57c0-1.14-.23-1.6-1.59-1.97l-3.19-.91v-1.82c4.4-.23,9.26-.99,12.9-2.2l.76.45c-.15,2.12-.38,4.48-.38,6.83v16.77c0,4.48,2.13,6.22,5.62,6.22,2.8,0,5.39-1.75,7.13-3.19v-19.43c0-1.59-.3-1.9-1.82-2.43l-3.8-1.21v-1.82c3.87-.23,10.17-.76,13.74-2.2l.76.45c-.31,2.12-.38,4.48-.38,6.83v23.87c0,2.05.45,2.73,2.05,2.73h2.61c1.73-.01,3.25-.69,4.03-1.63l10.73-11.71-9.87-13.51c-1.52-1.82-2.58-2.88-5.08-2.88h-.75v-2.28c3.42.16,6.75.31,10.16.31.84,0,1.68-.02,2.52-.04l4.7,6.11,4.18,5.46,4.25-5.09,5.46-6.45c.28,0,.55,0,.83,0,1.37,0,2.64-.06,4.04-.14l-12.84,14.18,11.01,15.18c1.21,1.67,2.88,2.27,4.93,2.27h.61v2.28c-2.81-.16-5.62-.31-8.42-.31-1.51,0-3.04.03-4.55.07l-3.5-4.78-5.92-7.97-4.85,5.92-5.5,6.76c-.14,0-4.81-.06-4.95-.06"/><path class="cls-1" d="M39.82,113.24h.22c2.2,0,3.94,0,3.94-2.28v-21.48c0-1.21-.15-1.67-1.82-2.13-.91-.23-1.75-.53-2.66-.76v-1.82c2.35-.61,4.94-1.52,6.91-2.2,1.75-.61,3.57-1.6,5.24-2.28l.83.68v30.44c0,1.82,1.75,1.82,3.64,1.82h1.14v2.28c-2.89-.15-5.77-.31-8.65-.31s-5.88.19-8.77.19-5.46.02-8.26.02c-1.51,0-3.04.02-4.55.07l-3.66-4.98-5.92-7.97-4.86,5.92-5.5,6.76c-.14,0-.28,0-.42,0-1.4,0-3.56.09-4.98.17l14.02-15.27-9.87-13.51c-1.52-1.82-2.58-2.88-5.08-2.88h-.76v-2.28c3.42.15,6.75.31,10.17.31.84,0,1.67-.01,2.51-.04l4.7,6.1,4.17,5.47,4.25-5.08,5.46-6.46c.28,0,.56,0,.84,0,1.37,0,2.64-.06,4.03-.14l-12.83,14.18,11,15.18c1.22,1.67,2.89,2.28,4.93,2.28h.61-.03Z"/><path class="cls-1" d="M205.63,60.89c-2.35-6.58-9.29-10.33-16.06-8.73l-9.66,2.99h0c-2.8.59-5.63-.83-6.85-3.4l-4.6,2.94c-3.39,2.6-4.27,7.47-1.93,11.14,2.34,3.66,7.06,4.87,10.84,2.9h.01s11.47-7.32,11.47-7.32c5.34-2.93,11.58-2.95,16.79-.49v-.04Z"/><path class="cls-1" d="M245.19,15.51c-2.38-3.73-7.23-4.9-11.04-2.79l-.02-.02-10.14,6.48s-.02.01-.03.02c-5.58,3.57-12.35,3.76-17.92,1.1,2.42,6.94,9.92,10.77,17,8.58,0,0,.01,0,.02,0l8.54-2.64v.02c2.85-.69,5.77.72,7.02,3.31l3.71-2.37c.11-.07.75-.48.75-.48h0c3.54-2.57,4.51-7.48,2.12-11.21"/><path class="cls-1" d="M177.9,12.36l6.57,10.28c3.52,5.56,3.71,12.28,1.07,17.83,6.89-2.43,10.7-9.88,8.55-16.92l-2.67-8.65h.01c-.69-2.86.73-5.77,3.33-7.02l-2.37-3.7c-.07-.11-.48-.75-.48-.75h0c-2.57-3.53-7.47-4.5-11.2-2.11-3.73,2.38-4.91,7.22-2.79,11.04h-.02Z"/><path class="cls-1" d="M233.94,69.12l-6.32-9.88c-.09-.18-.19-.37-.32-.56-3.55-5.55-3.75-12.28-1.14-17.83l-.37.11c-6.68,2.57-10.3,9.91-8.16,16.84.05.17.08.32.11.46l2.57,8.33h-.01c.6,2.8-.82,5.63-3.37,6.85l2.95,4.61c2.6,3.38,7.48,4.27,11.14,1.92,3.66-2.34,4.87-7.06,2.9-10.84h.01Z"/><path class="cls-1" d="M209.8,82.27c.91,0,1.68.32,2.32.96.64.64.96,1.41.96,2.31s-.32,1.68-.96,2.32c-.64.64-1.41.96-2.32.96s-1.68-.32-2.32-.96c-.63-.64-.95-1.41-.95-2.32s.32-1.67.96-2.31c.64-.64,1.41-.96,2.32-.96M213.6,85.53c0-1.05-.37-1.94-1.11-2.68-.74-.74-1.64-1.11-2.69-1.11s-1.94.37-2.68,1.11c-.74.74-1.11,1.63-1.11,2.68s.37,1.95,1.11,2.69c.74.74,1.63,1.11,2.69,1.11s1.95-.37,2.69-1.11c.74-.75,1.11-1.64,1.11-2.69M210.8,84.72c0,.31-.14.53-.44.64-.16.06-.39.09-.71.09h-.67v-1.49h.64c.41,0,.72.05.9.15.19.1.28.31.28.6M208.26,83.44v4.17h.72v-1.63h.59c.4,0,.68.04.83.14.27.15.4.47.4.94v.46s.02.03.03.04c0,.01,0,.03,0,.04h.69l-.03-.05s-.03-.1-.04-.21c0-.11,0-.21,0-.31v-.31c0-.21-.07-.42-.23-.64-.15-.22-.39-.35-.72-.41.26-.04.46-.11.61-.2.27-.18.41-.45.41-.83,0-.53-.22-.88-.65-1.06-.24-.1-.62-.15-1.14-.15h-1.46Z"/></g></svg>