<?xml version="1.0" encoding="UTF-8"?><svg id="Layer_2" xmlns="http://www.w3.org/2000/svg" viewBox="0 0 290.54 82.59"><defs><style>.cls-1{fill-rule:evenodd;}.cls-1,.cls-2{fill:#fff;stroke-width:0px;}</style></defs><g id="Layer_1-2"><path class="cls-1" d="M280.7,34.06c0-2.42,1.96-4.37,4.37-4.37s4.37,1.96,4.37,4.37-1.96,4.37-4.37,4.37-4.37-1.96-4.37-4.37ZM279.6,34.06c0-3.02,2.45-5.47,5.47-5.47s5.47,2.45,5.47,5.47-2.45,5.47-5.47,5.47-5.47-2.45-5.47-5.47ZM284.95,32.38h-1.02l-.6,2.66-.62-2.66h-1.03v3.38h.66v-2.82l.63,2.82h.69l.63-2.82v2.82h.67v-3.38ZM285.63,35.75h.69v-1.32h.73c.52,0,.55.18.55.64,0,.35.03.52.07.68h.78c-.15-.15-.15-.27-.15-.76,0-.63-.15-.73-.43-.86.34-.11.52-.43.52-.8,0-.29-.16-.95-1.06-.95h-1.71v3.38ZM286.32,33.86v-.9h.88c.42,0,.5.26.5.44,0,.33-.18.46-.55.46h-.83Z"/><polygon class="cls-2" points="26.26 58.73 47.5 .53 42.93 .53 23.81 52.83 26.26 58.73"/><polygon class="cls-2" points="29.42 66.26 53.38 .53 48.82 .53 26.98 60.42 29.42 66.26"/><polygon class="cls-2" points="32.57 73.79 59.29 .53 54.72 .53 30.12 67.96 32.57 73.79"/><polygon class="cls-2" points="35.72 81.33 65.17 .53 60.62 .53 33.27 75.49 35.72 81.33"/><path class="cls-2" d="M86.13,2.58c.28.8.23,1.75-.19,2.87-.42,1.15-1.04,2.07-1.88,2.77-.47.4-1.07.75-1.81,1.07.83.36,1.34.9,1.55,1.66.22.76.14,1.67-.25,2.74-.41,1.13-1.05,2.12-1.92,2.99-.58.59-1.2,1.09-1.88,1.48-.76.46-1.58.77-2.47.94-.87.16-1.8.26-2.75.26h-8.47L72.9.59h9.08c2.28.03,3.67.7,4.15,2ZM72.8,11.11l-1.83,5.01h4.56c.81,0,1.5-.11,2.03-.32.99-.42,1.68-1.19,2.11-2.35.35-.98.19-1.66-.48-2.02-.37-.2-.96-.31-1.77-.31h-4.63ZM75.45,3.82l-1.51,4.18h4.57c.81,0,1.54-.16,2.15-.48.62-.31,1.09-.86,1.38-1.66.32-.89.2-1.47-.39-1.75-.5-.2-1.21-.3-2.1-.3h-4.1Z"/><path class="cls-2" d="M97.04.59h4.45l-.21,18.78h-4.25l.18-3.86h-6.92l-2.66,3.86h-4.11L97.04.59ZM92.54,12.27h4.81l.31-7.39-5.12,7.39Z"/><path class="cls-2" d="M110.46.59h4.1l2.75,13.1,4.77-13.1h3.64l-6.85,18.78h-3.89l-2.85-13.37-4.88,13.37h-3.63L110.46.59Z"/><path class="cls-2" d="M130.48,2.54c2.08-1.56,4.28-2.34,6.62-2.34,3.12,0,5.03,1.04,5.72,3.11.37,1.17.38,2.33.01,3.51h-3.9c.07-.9,0-1.58-.22-2.03-.41-.82-1.3-1.23-2.68-1.23s-2.72.57-3.94,1.73c-1.23,1.15-2.23,2.78-2.99,4.89-.78,2.11-.93,3.68-.45,4.73.47,1.05,1.36,1.57,2.67,1.57s2.54-.45,3.58-1.35c.56-.49,1.15-1.21,1.77-2.18h3.9c-1.08,2.04-2.56,3.71-4.4,4.99-1.84,1.28-3.85,1.93-6.02,1.93-2.66,0-4.45-.86-5.35-2.6-.9-1.75-.79-4.13.32-7.16,1.19-3.3,2.98-5.83,5.37-7.58Z"/><path class="cls-2" d="M156.48,17.69c-1.95,1.46-4.27,2.19-6.96,2.19s-4.46-.73-5.34-2.19c-1.25-1.8-1.27-4.37-.04-7.75,1.26-3.43,3.14-6.03,5.68-7.75,1.94-1.46,4.27-2.19,6.95-2.19s4.46.74,5.35,2.19c1.28,1.72,1.28,4.31.03,7.75-1.23,3.38-3.11,5.95-5.66,7.75ZM155.08,14.84c1.33-1.15,2.38-2.79,3.15-4.9.78-2.11.9-3.74.41-4.89-.49-1.16-1.52-1.73-3.07-1.73s-3.01.58-4.36,1.73c-1.34,1.14-2.4,2.78-3.17,4.89-.78,2.12-.92,3.75-.4,4.9.53,1.16,1.55,1.72,3.1,1.72s3.01-.56,4.34-1.72Z"/><path class="cls-1" d="M260.32,60.57l5.13-15.56,4.99,15.56h-10.11ZM272.14,29.57h-13.12l-18.48,51.77h12.93l3.38-10.26h16.96c.36,1.16,3.28,10.26,3.28,10.26h13.36l-18.29-51.77ZM14.07,29.57H0v51.77h23.81v-28.5l-9.74-23.26ZM55.88,29.57l-8.28,23.26v28.5h23.83V29.57h-15.54ZM105.51,29.57v31.55c0,3.26-.38,5.63-1.11,7.07-1.12,2.48-3.53,3.66-7.39,3.66s-6.28-1.18-7.4-3.62c-.76-1.48-1.13-3.85-1.13-7.11v-31.55h-12.47v31.58c0,5.44.88,9.76,2.59,12.84,3.26,5.71,9.44,8.6,18.41,8.6s15.16-2.89,18.39-8.59c1.73-3.09,2.59-7.41,2.59-12.85v-31.58h-12.47ZM122.43,29.57v51.77h37.15v-10.87h-24.84V29.57h-12.31ZM148.23,29.57v10.76h15v41.02h12.42v-41.02h15v-10.76h-42.41ZM194.38,29.57h24.93s8.55,29.98,10.11,35.35l10.19-35.35h12.81l-17.65,51.77h-11.16l-16.99-50.37v50.37h-12.24V29.57Z"/></g></svg>