<?xml version="1.0" encoding="UTF-8"?><svg id="Layer_2" xmlns="http://www.w3.org/2000/svg" viewBox="0 0 180.45 171.17"><defs><style>.cls-1{fill:none;}.cls-1,.cls-2{stroke-width:0px;}.cls-2{fill:#fff;}</style></defs><g id="Layer_1-2"><path class="cls-2" d="M137.07,94.61c-2.08,0-3.76,1.74-3.76,3.87s1.69,3.88,3.76,3.88,3.74-1.74,3.74-3.88-1.68-3.87-3.74-3.87ZM138.47,101.18l-.07-.07-1.28-2.16h-.89v2.23h-1.01v-5.53h2.1c1.2,0,1.94.64,1.94,1.68,0,.71-.39,1.24-1.08,1.47l1.44,2.38h-1.16Z"/><path class="cls-2" d="M137.34,96.55h-1.12v1.49h1.12c.59,0,.87-.24.87-.74s-.28-.75-.87-.75Z"/><path class="cls-2" d="M148.23,0H33.05c-3.09,0-5.59,2.5-5.59,5.59v119.45c42.83-33.53,83.52,33.53,126.35,0V5.59c0-3.09-2.5-5.59-5.59-5.59ZM93.52,26.73v75.75h-17.3V34.27c0-4.16-3.37-7.54-7.54-7.54v75.75h-17.27V35.97c0-4.16-3.37-7.54-7.54-7.54h0c-1.42,0-3.11.45-4.07,1.2l-1.13-1.13,17.59-13.77,12.42,9.72,12.42-9.72,12.42,9.72,12.42-9.72,12.42,9.72v25.68l-17.3,13.54v-29.41c0-4.16-3.37-7.54-7.54-7.54ZM119.08,103.31l-18.02-14.1v-20.73l27.43-21.47,12.98,10.15c-1.71,4.81-6.29,8.26-11.69,8.26s-9.51-3.12-11.41-7.56v20.02c0,6.3,5.11,11.41,11.41,11.41,4.44,0,9.17-3.54,10.75-4.77l1.13,1.13-22.57,17.67ZM137.07,103.31c-2.61,0-4.72-2.16-4.72-4.82s2.12-4.82,4.72-4.82,4.71,2.17,4.71,4.82-2.11,4.82-4.71,4.82Z"/><path class="cls-1" d="M137.07,94.61c-2.08,0-3.76,1.74-3.76,3.87s1.69,3.88,3.76,3.88,3.74-1.74,3.74-3.88-1.68-3.87-3.74-3.87Z"/><polygon class="cls-2" points="0 147.59 5.65 147.59 12.16 166.57 18.82 147.59 24.09 147.59 24.09 170.63 20.96 170.63 20.96 149.89 13.4 170.63 10.37 170.63 3.09 150.02 3.09 170.63 0 170.63 0 147.59"/><path class="cls-2" d="M37.23,159.75c-.06-.73-.29-3.35-3.19-3.35-4.15,0-4.15,4.82-4.15,6.03,0,3.29.8,6.35,3.99,6.35,2.55,0,3.41-1.91,3.48-3.48h3.03c-.19,3.13-2.52,5.74-6.48,5.74-1.08,0-3.57-.22-5.26-2.07-.96-1.12-1.92-2.81-1.92-6.13,0-6.67,4.08-8.65,7.28-8.65,1.05,0,3.45.22,4.91,1.98,1.18,1.37,1.28,2.68,1.34,3.57h-3.03Z"/><path class="cls-2" d="M57.14,153.81c-.13-.8-.54-3.99-4.98-3.99-5.55,0-6.54,5.68-6.54,9.51,0,4.34,1.24,9.03,6.51,9.03,1.4,0,2.74-.35,3.73-1.37.83-.89,1.02-1.88,1.12-2.42h3.51c-.48,4.53-4.66,6.41-8.61,6.41-8.1,0-9.67-7.15-9.67-11.61,0-4.85,1.88-12.09,10.08-12.09,3.25,0,7.85,1.31,8.26,6.54h-3.41Z"/><path class="cls-2" d="M67.16,166.35c1.31,1.63,3.29,2.11,5.1,2.11s3.76-.51,5.11-2.11c1.88-2.3,2.07-5.93,2.07-7.5,0-5.23-1.72-9.19-6.99-9.19-5.84,0-7.34,4.69-7.34,9.41,0,2.52.45,5.3,2.04,7.27M64.73,150.08c2.39-2.58,5.55-3.1,7.69-3.1,6.38,0,10.4,4.08,10.4,11.9,0,6.13-2.46,12.28-10.66,12.28s-10.4-5.58-10.4-11.9c0-2.62.45-6.48,2.97-9.19"/><path class="cls-2" d="M88.76,157.51h5.04c.35,0,2.17,0,3.03-.51.45-.26,1.56-1.09,1.56-3,0-3.73-3.32-3.73-4.59-3.73h-5.04v7.24ZM85.66,147.59h8.23c1.18,0,3.61,0,5.3,1.09,1.72,1.08,2.55,2.84,2.55,4.69,0,1.63-.61,3.06-1.63,4.08-.99.99-2.01,1.31-2.71,1.5,2.2.58,3.19,1.56,3.51,4.44.32,2.71.54,4.69,1.44,7.24h-3.41c-.51-1.53-.83-4.34-1.05-6.09-.38-3.35-1.18-4.31-5.04-4.31h-4.02v10.4h-3.16v-23.04Z"/><polygon class="cls-2" points="105.22 147.59 110.87 147.59 117.38 166.57 124.04 147.59 129.31 147.59 129.31 170.63 126.18 170.63 126.18 149.89 118.62 170.63 115.59 170.63 108.31 150.02 108.31 170.63 105.22 170.63 105.22 147.59"/><rect class="cls-2" x="133.58" y="147.59" width="3.19" height="23.04"/><path class="cls-2" d="M154.74,153.81c-.13-.8-.54-3.99-4.98-3.99-5.55,0-6.54,5.68-6.54,9.51,0,4.34,1.24,9.03,6.51,9.03,1.4,0,2.74-.35,3.73-1.37.83-.89,1.02-1.88,1.12-2.42h3.51c-.48,4.53-4.66,6.41-8.61,6.41-8.1,0-9.67-7.15-9.67-11.61,0-4.85,1.88-12.09,10.08-12.09,3.25,0,7.85,1.31,8.26,6.54h-3.41Z"/><polygon class="cls-2" points="162.2 147.59 165.36 147.59 165.36 157.67 174.96 147.59 179.33 147.59 169.03 157.9 180.45 170.63 175.98 170.63 165.36 158.41 165.36 170.63 162.2 170.63 162.2 147.59"/></g></svg>